<svg version="1.2" xmlns="http://www.w3.org/2000/svg" viewBox="0 0 48 37" width="48" height="37">
	<title>Calque 1</title>
	<style>
		.s0 { fill: #1c3e74 } 
	</style>
	<g id="Calque 1">
		<g id="&lt;Group&gt;">
			<g id="&lt;Group&gt;">
				<g id="&lt;Group&gt;">
					<path id="-e-" class="s0" d="m0.9 17.7l21.2-16.8c0.4-0.3 0.9-0.3 1.3-0.1 0.4 0.2 0.7 0.6 0.7 1.1v6.9h22c0.8 0 1.5 0.7 1.5 1.5v16.8c0 0.8-0.7 1.4-1.5 1.4h-22v7c0 0.5-0.3 0.9-0.7 1.1q-0.2 0.1-0.5 0.1-0.4 0-0.8-0.2l-21.2-16.9c-0.3-0.2-0.4-0.5-0.4-0.9 0-0.4 0.1-0.7 0.4-1z"/>
				</g>
			</g>
		</g>
	</g>
</svg>