<!-- Generator: Adobe Illustrator 25.2.3, SVG Export Plug-In  -->
<svg version="1.1" xmlns="http://www.w3.org/2000/svg" xmlns:xlink="http://www.w3.org/1999/xlink" x="0px" y="0px" width="204px"
	 height="196.5px" viewBox="0 0 204 196.5" style="overflow:visible;enable-background:new 0 0 204 196.5;" xml:space="preserve">
<style type="text/css">
	.st0{fill:#F5333F;}
	.st1{fill:#001689;}
	.st2{fill-rule:evenodd;clip-rule:evenodd;fill:#001689;}
</style>
<defs>
</defs>
<g>
	<g>
		<path class="st0" d="M96.23,75.01c-0.29-0.18-0.33-0.03-0.46,0.18l-2.08,4.04c-0.09,0.16-0.03,0.22,0.14,0.15
			c0,0,0.94-0.47,1.79-0.47c0.85,0,1.85,0.46,1.85,1.46c0,1-1.55,1.85-3.93,1.85c-1.93,0-3.85-0.31-6.93-0.31
			c-10.32,0-12.09,8.32-12.09,11.71c0,3.39,1.16,9.23,5.47,9.23c4.32,0,3.44-5.91,3.44-5.91c-0.03-0.18-0.12-0.2-0.22-0.04
			c0,0-1.44,2.33-2.67,2.33c-1.62,0-3.93-1.07-3.93-4.39c0-3.86,2.76-9.16,10.32-9.16c6.78,0,12.09-0.54,12.4-5.78
			C99.53,76.29,96.23,75.01,96.23,75.01"/>
		<path class="st0" d="M82.26,105.91c-0.15,0.1-0.13,0.16,0.05,0.15c0,0,3.06-0.6,4.52-1.44c1.08-0.62,1.92-1.88,1.54-8.93
			c-0.35-6.38,2.59-7.12,2.59-7.12c0.22-0.12,0.24-0.29-0.13-0.27c0,0-3.09,0.62-4.78,2.54c-1.68,1.91-1.23,5.08-1.23,5.61
			c0,1.09,0.27,6.98-0.84,8.02C82.83,105.54,82.26,105.91,82.26,105.91"/>
		<path class="st0" d="M104.66,105.94V88.39l-3.26-2.51l-2.44,3.07l1.55,1.43v15.22l-1.42,1.56l3.62,2.88l2.73-2.88
			C105.44,107.16,104.66,106.65,104.66,105.94"/>
		<path class="st0" d="M97.24,91.3l-2.77,1.9c-0.09-6.45,2.32-7.04,2.32-7.04c0.29-0.12,0.26-0.31-0.03-0.31c0,0-2.6,0.14-4.38,2.29
			c-1.77,2.15-1.89,3.93-1.77,6.77c0.31,7.25,0.66,12.67-4.16,12.86c-3.46,0.14-4.54-2.85-7.24-2.85c-2.46,0-3.14,1.04-4.16,1.77
			c-1.7,1.23-2.24,4.51-2.24,4.51c-0.06,0.17,0,0.21,0.15,0.1c0,0,1.09-0.91,1.71-1.37c0.89-0.67,2.55-1.05,3.77-0.84
			c6.16,1.04,10.99,1.42,14.24-1.62c1.23-1.15,1.69-3.69,1.69-4.7v-4.54c0.77-1.92,2.93-2.61,2.93-2.61c0.3-0.09,0.3-0.12,0.31-0.42
			v-3.6C97.62,90.97,97.74,90.99,97.24,91.3"/>
		<path class="st0" d="M130.65,110.91c0,0.18-0.09,0.43-0.22,0.56c0,0-0.23,0.24-0.46,0.24c-2.32,0-0.62-1.85-3.85-2.09
			c-3.23-0.23-4.72,3.4-4.72,3.4c-0.11,0.24-0.07,0.28,0.18,0.19c0,0,0.98-0.35,2.08-0.35c2.4,0,3.39,2.15,5.7,2.15
			c1.69,0,2-1.3,2-1.3c0.04-0.17,0.15-0.36,0.31-0.44l2.98-1.67V94.7l-5.5-4.28l-5.97,5.07v9.96l4.56,3.61l2.91-2.61v-0.37
			l-3.27-2.61v-9.03l3.27,2.66"/>
		<g>
			<path class="st0" d="M119.67,105.45v-9.96l-6.44-5.07l-3.16,3.97c0,0-3.79,4.3-0.18,6.92l-2.06,2.59v3.25l4.27,3.41l3.19-2.76
				l-3.3-2.6v-3.39l3.44-4.33v9.64l3.71,2.91l2.51-3.01L119.67,105.45z M114.46,96.89c-0.67,0.8-1.72,2.13-3.19,1.06
				c-0.49-0.37-1.39-1.39,0-2.94l0.44-0.53l2.85,2.26L114.46,96.89z"/>
		</g>
	</g>
	<path class="st1" d="M13.2,138.71c4.84,1.08,8.51,3.77,8.55,3.8l0.78,0.58l3.95-7.2l-0.66-0.43c-0.13-0.08-3.28-2.1-9.98-3.05
		l-0.12-0.02l-0.12,0.02c-7.45,1.01-12.58,4.47-12.79,4.61l-0.29,0.2l-0.07,0.34c-0.04,0.22-1.08,5.5-0.06,10.83l0.1,0.54l0.54,0.12
		c0.09,0.02,9.01,2.13,14.29,6.48c0.33,1.37,0.08,2.88-0.05,3.51c-1.03,0.58-2.05,0.76-2.38,0.8c-4.9-1.1-10.21-4.6-10.26-4.63
		l-0.78-0.51L0,161.89l0.69,0.42c0.19,0.12,4.82,2.9,11.57,3.84l0.12,0.02l0.12-0.02c7.45-1.01,12.58-4.47,12.79-4.61l0.27-0.18
		l0.08-0.32c0.05-0.2,1.21-5.1,0.07-10.5l-0.07-0.33l-0.28-0.19c-0.26-0.18-6.43-4.35-14.55-6.75c-0.21-1.2-0.03-2.86,0.12-3.76
		C11.92,138.93,12.89,138.75,13.2,138.71"/>
	<path class="st1" d="M56.75,138.61l-0.27-0.23c-0.2-0.17-4.91-4.14-12.01-5.53l-0.25-0.05l-0.24,0.1
		c-2.56,1.04-4.57,2.72-5.66,3.75c-1.01-1.94-2.04-3.39-2.09-3.46l-0.38-0.52l-8.17,2.99l0.72,0.92c0.01,0.01,1.09,1.39,1.9,3.25
		c0.04,0.55,0.02,3.07-0.01,6.23c-0.05,5.94-0.14,15.87,0.05,26.11l0,0.18l0.07,0.16c0.05,0.11,1.29,2.82,2.79,5.14l0.29,0.45
		l0.54-0.08c3.63-0.51,6.82-2,6.95-2.06l0.74-0.35l-2.69-6.28c-0.09-1.25-0.19-2.72-0.22-4.2l3.01,0.86l0.2-0.04
		c8.42-1.65,14.23-7.32,14.47-7.56l0.22-0.22l0.03-0.3c0.01-0.08,0.81-8.58,0-18.91L56.75,138.61z M44.5,159.51
		c-2.68-0.9-4.82-2.35-5.87-3.13c-0.05-5.93,0.08-11.04,0.18-13.79c0.7-0.61,2.11-1.78,3.72-2.41c2.98,0.97,4.9,2.19,5.57,2.67
		c0.64,6.36,0.23,12.92,0.11,14.47C47.64,157.8,46.12,158.97,44.5,159.51"/>
	<path class="st1" d="M71.11,130.24c0.06-0.04,5.79-3.68,10.59-5.06l1.04-0.3l-0.54-0.94c-1.48-2.55-4.1-3.88-4.21-3.94l-0.36-0.18
		l-0.37,0.16c-0.21,0.09-5.1,2.29-9.44,6.51l-0.59,0.58l3.28,3.56L71.11,130.24z"/>
	<path class="st1" d="M85.69,138.71l-0.1-0.15c-0.12-0.17-2.95-4.29-10.36-5.7l-0.16-0.03l-0.16,0.03
		c-8.37,1.65-13.83,7.34-14.06,7.58l-0.21,0.22l-0.02,0.3c-0.01,0.08-0.55,8.57,0.25,18.83l0.03,0.41l0.35,0.23
		c0.28,0.19,7.11,4.61,20.29,5.54l0.53,0.04l0.26-0.46c1.58-2.78,2.69-6.16,2.74-6.31l0.38-1.16l-1.21,0.04
		c-7.21,0.25-12.95-1.55-14.59-2.12c-0.08-0.75-0.15-1.51-0.2-2.25c8.28-0.55,15.53-3.74,15.85-3.88l0.44-0.19l0.06-0.48
		c0.69-5.52-0.04-10.11-0.07-10.31L85.69,138.71z M69.54,141.46c0.4-0.39,1.44-1.31,2.98-2.13c2.61,0.97,4.07,2,4.6,2.42
		c0.05,0.63,0.14,2.16,0,4.42c-0.93,0.53-3.7,1.96-7.86,2.78C69.2,145.21,69.45,142.35,69.54,141.46"/>
	<path class="st1" d="M104.48,132.84l-0.1,0l-0.1,0.02c-8.36,1.65-14.11,7.32-14.36,7.56l-0.22,0.22l-0.02,0.31
		c0,0.03-0.25,3.38-0.25,8.39c0,5.04,0.67,9.22,0.69,9.39l0.05,0.33l0.26,0.2c0.28,0.22,7.07,5.39,21.2,6.7l0.5,0.05l0.28-0.42
		c1.93-2.89,2.76-6.47,2.79-6.62l0.24-1.05l-1.07,0.01c-0.09,0-0.17,0-0.26,0c-7.61,0-14.07-2.2-15.83-2.86
		c-0.45-5.93,0.08-11.92,0.25-13.5c0.97-0.61,2.79-1.7,3.78-2.15c4.06,1.28,8.09,3.43,8.13,3.45l0.47,0.25l0.43-0.32
		c2.87-2.11,4.65-4.56,4.72-4.66l0.49-0.68l-0.68-0.5C110.64,133.14,104.73,132.85,104.48,132.84"/>
	<path class="st1" d="M122.31,129.52l0.4,0.22l0.4-0.21c0.13-0.07,3.18-1.72,4.59-4.6l0.2-0.41l-0.23-0.39
		c-0.07-0.12-1.7-2.89-4.53-4.53l-0.41-0.24l-0.42,0.22c-0.12,0.07-3.04,1.65-4.58,4.58l-0.21,0.4l0.22,0.4
		C117.81,125.08,119.39,127.93,122.31,129.52"/>
	<path class="st1" d="M128.59,139.07l0.01-0.18l-0.07-0.17c-1.14-2.91-2.81-5.4-2.88-5.51l-0.37-0.55l-8.18,2.99l0.72,0.92
		c0.01,0.02,1.42,1.83,2.29,4.02c-0.09,1.38-0.62,9.86-0.05,19.61l0.01,0.16l0.07,0.14c0.05,0.11,1.28,2.82,2.73,5.08l0.3,0.46
		l0.54-0.08c3.63-0.51,6.82-2,6.95-2.06l0.76-0.36l-2.82-6.27C128.17,148.88,128.59,139.16,128.59,139.07"/>
	<path class="st1" d="M158.89,156.51c-0.69-8.73,0.02-17.32,0.02-17.4l0.04-0.47l-0.38-0.28c-5.3-3.91-11.54-5.43-11.8-5.49
		l-0.19-0.04l-0.19,0.04c-0.27,0.06-6.68,1.44-11.98,5.04l-0.62,0.42l2.37,4.65l0.78-0.48c3.08-1.88,6.43-2.48,7.16-2.6
		c0.69,0.17,3.74,1,6.42,2.84l-0.22,2.91c-7.76,0.86-16.22,4.74-16.59,4.91l-0.4,0.19l-0.08,0.44c-0.83,4.63-0.09,8.94-0.06,9.12
		l0.04,0.24l0.16,0.18c3.09,3.47,7.48,5.13,7.67,5.2l0.26,0.09l0.26-0.07c0.24-0.06,5.64-1.53,9.98-4.6
		c1.66,2.22,3.37,4.19,3.45,4.28l0.44,0.5l0.59-0.3c3.62-1.84,6.37-4.51,6.48-4.62l0.68-0.67l-0.74-0.6
		C160.9,158.67,159.4,157.07,158.89,156.51 M150.53,156.62c-2.45,1.53-5.82,2.45-6.68,2.66c-1.15-0.35-2.31-1.24-2.75-1.6
		c-0.15-0.57-0.49-2.25-0.01-4.34c1.07-0.53,4.69-2.19,9.17-2.64C150.28,152.69,150.38,154.82,150.53,156.62"/>
	<path class="st1" d="M174.07,126.15l0.01-0.21l-0.09-0.19c-1.14-2.47-2.63-4.53-2.69-4.62l-0.38-0.52l-8.14,2.98l0.7,0.92
		c0.01,0.01,1.07,1.42,1.95,3.3c0,0.35-0.02,1.39-0.06,2.56c-0.14,5.13-0.46,17.14,0.11,29.82l0.01,0.17l0.07,0.15
		c0.05,0.11,1.28,2.74,2.72,5.06l0.29,0.47l0.55-0.08c3.62-0.51,6.87-2,7.01-2.06l0.76-0.35l-2.76-6.28
		C173.22,142.45,174.06,126.31,174.07,126.15"/>
	<path class="st1" d="M203.63,138.89l-0.03-0.18l-0.1-0.15c-0.12-0.17-2.95-4.29-10.36-5.7l-0.16-0.03l-0.16,0.03
		c-8.37,1.65-13.83,7.34-14.06,7.58l-0.21,0.22l-0.02,0.3c-0.01,0.08-0.55,8.57,0.25,18.83l0.03,0.41l0.35,0.23
		c0.28,0.19,7.11,4.61,20.29,5.54l0.53,0.04l0.26-0.46c1.58-2.78,2.69-6.16,2.74-6.31l0.38-1.16l-1.21,0.04
		c-7.21,0.25-12.95-1.55-14.59-2.12c-0.08-0.75-0.15-1.51-0.2-2.25c8.28-0.55,15.53-3.74,15.85-3.88l0.44-0.19l0.06-0.48
		C204.39,143.68,203.66,139.09,203.63,138.89 M187.45,141.46c0.4-0.39,1.44-1.31,2.98-2.13c2.61,0.97,4.07,2,4.6,2.42
		c0.05,0.63,0.14,2.16,0,4.42c-0.93,0.53-3.7,1.96-7.86,2.78C187.12,145.21,187.37,142.35,187.45,141.46"/>
	<path class="st1" d="M52.47,189.47v-0.04c0-3.85,2.97-7.07,7.17-7.07c4.2,0,7.13,3.18,7.13,7.03v0.04c0,3.85-2.97,7.07-7.17,7.07
		C55.4,196.5,52.47,193.31,52.47,189.47 M64.25,189.47v-0.04c0-2.66-1.93-4.86-4.65-4.86c-2.71,0-4.61,2.17-4.61,4.82v0.04
		c0,2.66,1.93,4.86,4.65,4.86C62.36,194.29,64.25,192.12,64.25,189.47"/>
	<path class="st1" d="M69.68,182.59h6.09c1.72,0,3.07,0.51,3.95,1.37c0.72,0.74,1.13,1.76,1.13,2.95v0.04
		c0,2.25-1.35,3.59-3.26,4.14l3.69,5.18h-2.83l-3.36-4.77h-3.01v4.77h-2.4V182.59z M75.6,189.37c1.72,0,2.81-0.9,2.81-2.29v-0.04
		c0-1.46-1.06-2.26-2.83-2.26h-3.5v4.59H75.6z"/>
	<rect x="83.93" y="182.59" class="st1" width="2.4" height="13.67"/>
	<path class="st1" d="M89.38,189.47v-0.04c0-3.83,2.93-7.07,7.05-7.07c2.38,0,3.85,0.66,5.25,1.85l-1.52,1.82
		c-1.05-0.9-2.09-1.46-3.83-1.46c-2.52,0-4.43,2.21-4.43,4.82v0.04c0,2.81,1.85,4.88,4.65,4.88c1.29,0,2.46-0.41,3.3-1.04v-2.56
		h-3.5v-2.09h5.82v5.74c-1.35,1.15-3.28,2.13-5.7,2.13C92.19,196.5,89.38,193.45,89.38,189.47"/>
	<rect x="105.43" y="182.59" class="st1" width="2.4" height="13.67"/>
	<polygon class="st1" points="111.49,182.59 113.72,182.59 121.04,192.04 121.04,182.59 123.4,182.59 123.4,196.26 121.39,196.26 
		113.85,186.54 113.85,196.26 111.49,196.26 	"/>
	<path class="st1" d="M131.76,182.49h2.22l6.02,13.77h-2.54l-1.39-3.3h-6.47l-1.41,3.3h-2.46L131.76,182.49z M135.2,190.83
		l-2.36-5.47l-2.34,5.47H135.2z"/>
	<polygon class="st1" points="142.34,182.59 144.75,182.59 144.75,194.08 151.93,194.08 151.93,196.26 142.34,196.26 	"/>
	<g>
		<path class="st2" d="M147.86,56.58c0.19-9.61-7.38-13.87-7.46-14.08c3.66,0.64,7.48,3.4,7.48,3.4c-2.76-6.8-7.41-9.48-10.32-10.52
			c1.64-0.63,6.43-0.59,6.43-0.59c-3.6-2.69-7.04-3.48-8.91-3.71c-1.93-4.72-7.17-9.98-16.91-9.7c-0.4,0.01-6.91-0.07-13.2,2
			c-0.5,0.17-1.91,0.91-1.91,0.91s-8.8-4.99-13.89,1.57c-3.76,4.84,2.74,10.78,6.55,11.17c0,0-0.02-0.02-0.05-0.04
			c-0.17-0.22-4.67-6.41,4.24-7.78c0,0-7.49-3-8.26,3.01c0,0,0-0.01-0.01-0.01c-0.95-1.76-1.3-3.69,0.17-5.21
			c2.4-2.48,6.4-2.13,9.18-0.53c-0.04,0.04-0.06,0.06-0.06,0.06c0.04-0.01,0.07-0.03,0.11-0.03c0.01,0.01,0.03,0.02,0.04,0.03
			l0.06-0.06c3.53-1.08,6.33,0.55,6.33,0.55c-8.43,2.53-13.64,12.43-6.43,19.37c-0.09-0.21-2.91-6.83,2.2-10.83
			c-0.06,0.21-1.97,6.12,1.67,7.44c3.69,1.34,7.45-0.21,10.01,1.49c0,0-0.83-3.09-6.23-3.49c0,0,7.8-2.91,11.18,5.84
			c0,0-6.95,6.14-0.39,10.74c-0.06-0.13-1.72-3.77,0.31-6.63c0,0,0.03,7.19,6.42,6.62c6.38-0.56,9.1-4.39,6.3-7.01
			c-2.8-2.62-4.53-2.4-5.48-3.9c-1.07-1.69,0.55-2.43,0.55-2.43s6.6,1.77,9.77-1.47c0,0,2.74,1.82,1.17,3.48
			c-1.56,1.65-3.61,3.8-1.71,6.57c1.97,2.86,5.45,1.21,6.35-1.27c0-0.02,0.01-0.04,0.01-0.06c0,0.01,0,0.02,0.01,0.03
			c0,0.01-0.01,0.02-0.01,0.04c-0.27,2.08-1.13,6.39-3.99,7.82c0,0-1.52-2.9-4.89-1.45c-3.36,1.45-8.21,6.36-12.32,4.32
			c0,0,2.09,3.69,8.3,4.2c8.52,0.7,10.58-5.6,10.58-5.6s1.74,6.45-3.88,9.42c1.64,1.77,2.44,1.83,4.52,3.69
			c4.3-9.63,2.49-19.4,1.9-22.27C145.33,53.37,147.86,56.58,147.86,56.58 M117.93,37.52c-4.31,0.24-4.58-2.41-7.78-2.12l-1.72,0.27
			c0,0,3.19-2.29,6.62-2.75c3.43-0.47,5.73,0.16,7.15-0.03c0,0-3.08,1.58-3.08,2.03c0,0.45,3.11,1.2,4.45,3.87
			C123.04,38.33,122.24,37.28,117.93,37.52 M133.89,36.94c-2.62-2.59-4.5-3.49-4.38-4.25c0.13-0.76,3.93-1.2,4.4-1.25
			c0.01,0.01,0.01,0.02,0.02,0.04C132.56,33.41,133.48,36.01,133.89,36.94"/>
		<path class="st2" d="M106.47,9.48c0.29,0.06,12.15,2.4,16.6,10.28l-0.59-5.21c0,0,7.17,1.48,7.45,7.95c0,0,7.58-10.56-20.8-17.48
			c0,0-5.82-1.54-9.09-2.46C96.39,1.55,95.53,0,95.53,0s0.15,5.21,4.13,7.58c0,0-14.85,1.07-20.73-5.73c0,0-2.68,9.92,21.37,11.12"
			/>
		<path class="st2" d="M100.29,12.97c9.56,0.48,13.32,4.82,14.34,7.01c0,0-1.47-8.21-8.16-10.49"/>
		<g>
			<path class="st2" d="M99.86,83.41c0.24,0.31,0.48,0.62,0.71,0.93l0.55-0.69l2.04,1.57c-0.51-1.44-1.24-3.11-2.28-4.96
				C100.78,81.44,100.43,82.51,99.86,83.41z"/>
			<path class="st2" d="M79.55,32.66c-10.3,7.34-10.18,18.19-6.61,24.86c4.55,8.48,12.86,12.71,20.32,19.07l1.14-2.21l0.05-0.07
				l0.11-0.17c0.08-0.11,0.22-0.34,0.59-0.56c0.2-0.12,0.46-0.19,0.71-0.22c-0.99-1.11-2.08-2.25-3.32-3.4
				c0.51,0.2,13.25,5.62,19.75,16.52l0.42-0.53l2.49,1.97l5.51,4.34c1.02-3.07,0.54-6.95-1.43-10.24c0.34,0.22,5.18,3.46,6.71,8.99
				l3.09-2.63l2.59,2.01c3.38-1.35,6.45-2.84,5.04-5.68c-5.03-10.1-26.88-16.88-33.24-25.75c-1.23,6.03,10.58,11.75,9.15,20.39
				c-2.11-6.21-9.74-11.56-15.71-16.64c-7.01-5.95-9.64-14.59-2.13-23.96c-16.5,8.37-7.02,25.16-6.7,25.73
				c-12.6-9.78-7.8-22.55-2.86-28.72c-4.49-5.81-0.77-12.5,2.84-13.6c0.8-0.13,1.52-0.25,2.12-0.37c0,0,0-0.01-0.01-0.01l-5.06-3.15
				c0,0,9.43-3.27,22.1,2.38c-0.19-0.38-3.68-6.63-17.92-6.1c-13.25,0.48-18.06-3.01-18.33-3.21c0.22,0.37,3.76,6.18,8.67,8.59
				c-3.52,0.19-7.02,1.2-10.34,3.2c-8.62,5.2-9.68,11.73-10.01,13.06c9.19-9.82,20.12-10.52,20.12-10.52
				c-14.56,5.69-22.42,11.79-22.86,25.05c-0.41,12.5,6.82,27.91,14.95,35.44C57.07,61.41,62.41,38.78,79.55,32.66z"/>
		</g>
	</g>
</g>
</svg>
